<mxfile modified="2022-05-20T02:09:17.963Z" host="app.diagrams.net" agent="5.0 (Windows NT 10.0; Win64; x64) AppleWebKit/537.36 (KHTML, like Gecko) Chrome/101.0.4951.54 Safari/537.36" etag="tEn_60yAf7ejl24pQslI" compressed="false" version="18.0.8" type="google">
  <diagram name="Integration/System Logical Module/API/Resource URLs/SCIM" id="5i9j6kY8DWkCYeISKFBW">
    <mxGraphModel grid="1" page="1" gridSize="10" guides="1" tooltips="1" connect="1" arrows="1" fold="1" pageScale="1" pageWidth="850" pageHeight="1100" math="0" shadow="0">
      <root>
        <mxCell id="Z2psPhNsco0Lnuc9M6R1-0" />
        <mxCell id="Z2psPhNsco0Lnuc9M6R1-1" value="Diagram" parent="Z2psPhNsco0Lnuc9M6R1-0" />
        <mxCell id="Z2psPhNsco0Lnuc9M6R1-13" value="Description" style="text;html=1;strokeColor=none;fillColor=#f5f5f5;align=left;verticalAlign=middle;whiteSpace=wrap;rounded=0;fontSize=12;fontFamily=Helvetica;fontColor=#333333;fontStyle=0" parent="Z2psPhNsco0Lnuc9M6R1-1" vertex="1">
          <mxGeometry x="400" y="199" width="320" height="20" as="geometry" />
        </mxCell>
        <mxCell id="Z2psPhNsco0Lnuc9M6R1-14" value="URL" style="text;html=1;strokeColor=none;fillColor=#f5f5f5;align=left;verticalAlign=middle;whiteSpace=wrap;rounded=0;fontSize=12;fontFamily=Helvetica;fontColor=#333333;fontStyle=0" parent="Z2psPhNsco0Lnuc9M6R1-1" vertex="1">
          <mxGeometry x="160" y="200" width="230" height="20" as="geometry" />
        </mxCell>
        <mxCell id="Z2psPhNsco0Lnuc9M6R1-15" value="&lt;font style=&quot;font-size: 10px;&quot;&gt;VERB&lt;/font&gt;" style="text;html=1;strokeColor=none;fillColor=#f5f5f5;align=left;verticalAlign=middle;whiteSpace=wrap;rounded=0;fontSize=10;fontFamily=Helvetica;fontColor=#333333;fontStyle=0" parent="Z2psPhNsco0Lnuc9M6R1-1" vertex="1">
          <mxGeometry x="120" y="200" width="30" height="20" as="geometry" />
        </mxCell>
        <mxCell id="Z2psPhNsco0Lnuc9M6R1-91" value="Context/legend" parent="Z2psPhNsco0Lnuc9M6R1-0" />
        <mxCell id="Z2psPhNsco0Lnuc9M6R1-92" value="Title/Diagram" parent="Z2psPhNsco0Lnuc9M6R1-0" />
        <mxCell id="Z2psPhNsco0Lnuc9M6R1-93" value="&lt;font style=&quot;font-size: 12px ; font-weight: normal&quot;&gt;&lt;i&gt;Diagram: Base System Logical Module -&amp;nbsp;&lt;/i&gt;&lt;i&gt;Interoperability&amp;nbsp;&lt;/i&gt;&lt;i&gt;- APIs - System for Cross Domain Identity Mgmtn (SCIM)&lt;/i&gt;&lt;/font&gt;" style="text;strokeColor=none;fillColor=none;html=1;fontSize=12;fontStyle=1;verticalAlign=middle;align=left;shadow=0;glass=0;comic=0;opacity=30;fontColor=#808080;" parent="Z2psPhNsco0Lnuc9M6R1-92" vertex="1">
          <mxGeometry x="120" y="300" width="560" height="20" as="geometry" />
        </mxCell>
        <mxCell id="Z2psPhNsco0Lnuc9M6R1-94" value="Title/Page" parent="Z2psPhNsco0Lnuc9M6R1-0" visible="0" />
        <mxCell id="Z2psPhNsco0Lnuc9M6R1-95" value="" style="group;fontSize=12;" parent="Z2psPhNsco0Lnuc9M6R1-94" vertex="1" connectable="0">
          <mxGeometry x="120" y="120" width="600" height="45" as="geometry" />
        </mxCell>
        <mxCell id="Z2psPhNsco0Lnuc9M6R1-96" value="&lt;font style=&quot;font-size: 12px&quot;&gt;Base Logical Module - Interoperability - APIs - System for Cross Domain Identity Mgmt (SCIM)&lt;/font&gt;" style="text;strokeColor=none;fillColor=none;html=1;fontSize=12;fontStyle=1;verticalAlign=middle;align=left;shadow=0;glass=0;comic=0;opacity=30;fontColor=#808080;" parent="Z2psPhNsco0Lnuc9M6R1-95" vertex="1">
          <mxGeometry y="20" width="600" height="20" as="geometry" />
        </mxCell>
        <mxCell id="Z2psPhNsco0Lnuc9M6R1-97" value="" style="line;strokeWidth=2;html=1;shadow=0;glass=0;comic=0;fillColor=none;fontSize=10;fontColor=#CCCCCC;labelBackgroundColor=none;strokeColor=#CCCCCC;" parent="Z2psPhNsco0Lnuc9M6R1-95" vertex="1">
          <mxGeometry y="35" width="600" height="10" as="geometry" />
        </mxCell>
        <mxCell id="Z2psPhNsco0Lnuc9M6R1-98" value="About" parent="Z2psPhNsco0Lnuc9M6R1-0" />
      </root>
    </mxGraphModel>
  </diagram>
</mxfile>
